# xmcd
#
# Track frame offsets: 
#        150
#        20360
#        43554
#        64960
#        95197
#        136993
#        159468
#        180660
#        223455
#        248145
#        275910
#        315433
#        345972
#
# Disc length: 4800 seconds
#
# Revision: 1
# Processed by: cddbd v1.5.2PL0 Copyright (c) Steve Scherf et al.
# Submitted via: ExactAudioCopy v1.0b3
#
DISCID=c212be0d
DTITLE=Various Artist - stereoplay 2017-12 - Audiophile Sounds of BIS
DTITLE=[Pioneer] [SACD]
DYEAR=2017
DGENRE=Classical
TTITLE0=Emilia Amper - Spelpumpa
TTITLE1=W. A. Mozart - Klavierkonzert Nr. 21, 2. Satz Andante [R. Brau
TTITLE1=tigam, Kölner Akademie -M.A. Willens]
TTITLE2=Sergei Prokofiev - Flötensonate Op. 94, 3. Satz Andante [Sharo
TTITLE2=n Bezaly, Vladimir Ashkenazy]
TTITLE3=Peter Tschaikowsky - Scherzo à la Russe [Alexandre Kantorow]
TTITLE4=Jean Sibelius - Der Schwan von Tuonela [Lahti Symphony Orchest
TTITLE4=ra - Osmo Vänskä]
TTITLE5=W. A. Mozart - Messe c-Moll -Benedictus [Bach Collegium Japan 
TTITLE5=Masaaki Suzuki]
TTITLE6=Niccolò Paganini - Caprice Nr. 24 a-moll [Sueye Park]
TTITLE7=L. v. Beethoven - Klavierkonzert Nr. 4, 3. Satz Rondo, Vivace 
TTITLE7=[Y. Sudbin, Minnesota Or. -Vänskä]
TTITLE8=A. Dvorák - Waldesruh (Klid) op. 68 Nr. 5 (arr.) [Christian Po
TTITLE8=ltèra, Kathryn Scott]
TTITLE9=L. v. Beethoven - Streichtrio Nr. 1, 6. Satz Finale, Allegro [
TTITLE9=F.P. Zimmermann, A. Tamestit, C. Poltéra]
TTITLE10=J. Brahms - Violinkonzert, 2. Satz Adagio [Vadim Gluzmani, Lu
TTITLE10=zerner SO - James Gaffigan]
TTITLE11=Kalevi Aho - 8 Jahreszeiten, 8. Satz Mitternachtssonne [C. Ey
TTITLE11=ck -Theremin, Lapland CO -Storgards]
TTITLE12=J.S.Bach - Jesus bleibet meine Freude [Bach Collegium Japan -
TTITLE12=Masaaki Suzuki]
EXTD=
EXTT0=
EXTT1=
EXTT2=
EXTT3=
EXTT4=
EXTT5=
EXTT6=
EXTT7=
EXTT8=
EXTT9=
EXTT10=
EXTT11=
EXTT12=
PLAYORDER=
